<svg xmlns="http://www.w3.org/2000/svg" width="860" height="212" viewBox="0 0 860 212"><defs><clipPath id="wvcna"><path d="M.638 145.972a.542.542 0 1 1 0-1.084.542.542 0 0 1 0 1.084z"/></clipPath><clipPath id="wvcnb"><path d="M16.867 154.565a1.263 1.263 0 1 1 0-2.527 1.263 1.263 0 0 1 0 2.527z"/></clipPath><clipPath id="wvcnc"><path d="M31.684 160.14a1.874 1.874 0 1 1 3.748 0 1.874 1.874 0 0 1-3.748 0z"/></clipPath><clipPath id="wvcnd"><path d="M50.733 168.032a2.395 2.395 0 1 1 0-4.79 2.395 2.395 0 0 1 0 4.79z"/></clipPath><clipPath id="wvcne"><path d="M68.373 172.224a2.846 2.846 0 1 1 0-5.693 2.846 2.846 0 0 1 0 5.693z"/></clipPath><clipPath id="wvcnf"><path d="M86.344 174.051a3.264 3.264 0 1 1 0-6.528 3.264 3.264 0 1 1 0 6.528z"/></clipPath><clipPath id="wvcng"><path d="M104.288 172.765a3.598 3.598 0 1 1 0-7.196 3.598 3.598 0 0 1 0 7.196z"/></clipPath><clipPath id="wvcnh"><path d="M121.5 167.798a3.909 3.909 0 0 1-3.908-3.911 3.91 3.91 0 1 1 3.909 3.91z"/></clipPath><clipPath id="wvcni"><path d="M137.035 158.95a4.162 4.162 0 1 1 0-8.323 4.162 4.162 0 0 1 0 8.323z"/></clipPath><clipPath id="wvcnj"><path d="M150.116 146.778a4.367 4.367 0 1 1 0-8.735 4.367 4.367 0 0 1 0 8.735z"/></clipPath><clipPath id="wvcnk"><path d="M160.665 132.362a4.571 4.571 0 1 1-.003-9.143 4.571 4.571 0 0 1 .003 9.143z"/></clipPath><clipPath id="wvcnl"><path d="M164.514 111.9a4.674 4.674 0 1 1 9.347 0 4.674 4.674 0 0 1-9.347 0z"/></clipPath><clipPath id="wvcnm"><path d="M171.67 95.382a4.77 4.77 0 1 1 9.539 0 4.77 4.77 0 0 1-9.54 0z"/></clipPath><clipPath id="wvcnn"><path d="M178.423 78.686a4.865 4.865 0 1 1 9.73 0 4.865 4.865 0 0 1-9.73 0z"/></clipPath><clipPath id="wvcno"><path d="M190.963 67.199a4.83 4.83 0 1 1 0-9.661 4.83 4.83 0 0 1 0 9.661z"/></clipPath><clipPath id="wvcnp"><path d="M197.143 48.155a4.772 4.772 0 1 1 9.545 0 4.772 4.772 0 0 1-9.545 0z"/></clipPath><clipPath id="wvcnq"><path d="M218.66 47.384a4.569 4.569 0 1 1-.001-9.138 4.569 4.569 0 0 1 0 9.138z"/></clipPath><clipPath id="wvcnr"><path d="M235.034 54.089a4.291 4.291 0 1 1 0-8.582 4.291 4.291 0 0 1 0 8.582z"/></clipPath><clipPath id="wvcns"><path d="M243.925 62.444a3.918 3.918 0 1 1 7.835 0 3.918 3.918 0 0 1-7.835 0z"/></clipPath><clipPath id="wvcnt"><path d="M258.61 80.455a3.545 3.545 0 1 1-.002-7.09 3.545 3.545 0 0 1 .002 7.09z"/></clipPath><clipPath id="wvcnu"><path d="M268.412 95.227a3.166 3.166 0 1 1 .001-6.333 3.166 3.166 0 0 1-.001 6.333z"/></clipPath><clipPath id="wvcnv"><path d="M275.091 107.424a2.779 2.779 0 1 1 5.558 0 2.779 2.779 0 0 1-5.558 0z"/></clipPath><clipPath id="wvcnw"><path d="M287.46 125.094a2.393 2.393 0 1 1-.001-4.786 2.393 2.393 0 0 1 .001 4.786z"/></clipPath><clipPath id="wvcnx"><path d="M295.605 137.575a2.067 2.067 0 1 1 4.135 0 2.067 2.067 0 0 1-4.135 0z"/></clipPath><clipPath id="wvcny"><path d="M309.175 153.302a1.833 1.833 0 1 1 0-3.666 1.833 1.833 0 0 1 0 3.666z"/></clipPath><clipPath id="wvcnz"><path d="M323.013 164.684a1.712 1.712 0 1 1 0-3.424 1.712 1.712 0 0 1 0 3.424z"/></clipPath><clipPath id="wvcnA"><path d="M340.038 169.933a1.632 1.632 0 1 1-.001-3.264 1.632 1.632 0 0 1 0 3.264z"/></clipPath><clipPath id="wvcnB"><path d="M357.145 165.094a1.676 1.676 0 1 1 0-3.352 1.676 1.676 0 0 1 0 3.352z"/></clipPath><clipPath id="wvcnC"><path d="M368.823 151.473a1.74 1.74 0 1 1 3.48 0 1.74 1.74 0 0 1-3.48 0z"/></clipPath><clipPath id="wvcnD"><path d="M381.037 138.72a1.918 1.918 0 1 1 0-3.835 1.918 1.918 0 0 1 0 3.835z"/></clipPath><clipPath id="wvcnE"><path d="M389.84 123.2a2.144 2.144 0 1 1 0-4.287c1.183 0 2.144.96 2.144 2.144a2.145 2.145 0 0 1-2.145 2.143z"/></clipPath><clipPath id="wvcnF"><path d="M395.261 104.852a2.455 2.455 0 1 1 4.91 0 2.455 2.455 0 0 1-4.91 0z"/></clipPath><clipPath id="wvcnG"><path d="M405.168 91.186a2.766 2.766 0 1 1-.002-5.532 2.766 2.766 0 0 1 .002 5.532z"/></clipPath><clipPath id="wvcnH"><path d="M412.546 75.055a3.094 3.094 0 1 1 0-6.188 3.094 3.094 0 0 1 0 6.188z"/></clipPath><clipPath id="wvcnI"><path d="M420.21 59.082a3.453 3.453 0 1 1 0-6.905 3.453 3.453 0 0 1 0 6.905z"/></clipPath><clipPath id="wvcnJ"><path d="M424.798 39.657a3.81 3.81 0 1 1 7.62 0 3.81 3.81 0 0 1-7.62 0z"/></clipPath><clipPath id="wvcnK"><path d="M438.436 28.682a4.142 4.142 0 1 1 0-8.283 4.142 4.142 0 0 1 0 8.283z"/></clipPath><clipPath id="wvcnL"><path d="M446.544 11.644a4.425 4.425 0 1 1 8.85 0 4.425 4.425 0 0 1-8.85 0z"/></clipPath><clipPath id="wvcnM"><path d="M462.932 5.292a4.646 4.646 0 1 1 9.292 0 4.646 4.646 0 0 1-9.292 0z"/></clipPath><clipPath id="wvcnN"><path d="M484.498 15.347a4.84 4.84 0 1 1 .001-9.68 4.84 4.84 0 0 1-.001 9.68z"/></clipPath><clipPath id="wvcnO"><path d="M492.119 23.308a4.983 4.983 0 1 1 9.967 0 4.983 4.983 0 0 1-9.967 0z"/></clipPath><clipPath id="wvcnP"><path d="M506.973 43.515a5.119 5.119 0 1 1 0-10.238 5.119 5.119 0 0 1 0 10.238z"/></clipPath><clipPath id="wvcnQ"><path d="M510.588 54.098a5.253 5.253 0 1 1 10.506 0 5.253 5.253 0 0 1-10.506 0z"/></clipPath><clipPath id="wvcnR"><path d="M519.312 69.81a5.388 5.388 0 1 1 10.775 0 5.388 5.388 0 0 1-10.775 0z"/></clipPath><clipPath id="wvcnS"><path d="M534.272 90.622a5.523 5.523 0 1 1 .004-11.047 5.523 5.523 0 0 1-.004 11.047z"/></clipPath><clipPath id="wvcnT"><path d="M539.585 99.413a5.657 5.657 0 1 1 11.315 0 5.657 5.657 0 0 1-11.315 0z"/></clipPath><clipPath id="wvcnU"><path d="M558.27 117.614a5.755 5.755 0 1 1-.001-11.51 5.755 5.755 0 0 1 .001 11.51z"/></clipPath><clipPath id="wvcnV"><path d="M573.707 126.858a5.772 5.772 0 0 1 0-11.542 5.773 5.773 0 0 1 5.772 5.772 5.773 5.773 0 0 1-5.772 5.77z"/></clipPath><clipPath id="wvcnW"><path d="M585.281 125.808a5.787 5.787 0 1 1 11.575 0 5.787 5.787 0 0 1-11.575 0z"/></clipPath><clipPath id="wvcnX"><path d="M603.271 125.293a5.766 5.766 0 1 1 11.532 0 5.766 5.766 0 0 1-11.532 0z"/></clipPath><clipPath id="wvcnY"><path d="M620.595 120.024a5.656 5.656 0 1 1 11.312 0 5.656 5.656 0 0 1-11.312 0z"/></clipPath><clipPath id="wvcnZ"><path d="M636.695 111.713a5.545 5.545 0 1 1 11.09 0 5.545 5.545 0 0 1-11.09 0z"/></clipPath><clipPath id="wvcnaa"><path d="M657.384 107.354a5.435 5.435 0 1 1 0-10.87 5.435 5.435 0 0 1 0 10.87z"/></clipPath><clipPath id="wvcnab"><path d="M667.071 91.805a5.25 5.25 0 1 1 10.5 0 5.25 5.25 0 0 1-10.5 0z"/></clipPath><clipPath id="wvcnac"><path d="M687.768 87.544a5.046 5.046 0 1 1 0-10.091 5.046 5.046 0 0 1 0 10.091z"/></clipPath><clipPath id="wvcnad"><path d="M704.413 80.457a4.84 4.84 0 1 1 0-9.681 4.84 4.84 0 0 1 4.84 4.84 4.84 4.84 0 0 1-4.84 4.841z"/></clipPath><clipPath id="wvcnae"><path d="M722.255 78.197a4.574 4.574 0 0 1-4.575-4.575 4.575 4.575 0 1 1 4.574 4.574z"/></clipPath><clipPath id="wvcnaf"><path d="M739.63 82.416a4.293 4.293 0 0 1 0-8.584 4.293 4.293 0 0 1 0 8.584z"/></clipPath><clipPath id="wvcnag"><path d="M750.648 88.015a3.99 3.99 0 1 1 7.981 0 3.99 3.99 0 0 1-7.981 0z"/></clipPath><clipPath id="wvcnah"><path d="M767.07 104.655a3.599 3.599 0 0 1-3.598-3.597 3.597 3.597 0 1 1 3.599 3.597z"/></clipPath><clipPath id="wvcnai"><path d="M778.557 118.171a3.205 3.205 0 1 1 0-6.41 3.205 3.205 0 0 1 0 6.41z"/></clipPath><clipPath id="wvcnaj"><path d="M791.204 130.614a2.812 2.812 0 1 1 0-5.624 2.812 2.812 0 0 1 0 5.624z"/></clipPath><clipPath id="wvcnak"><path d="M806.562 139.536a2.406 2.406 0 1 1-.002-4.812 2.406 2.406 0 0 1 .002 4.812z"/></clipPath><clipPath id="wvcnal"><path d="M824.105 142.862a1.87 1.87 0 0 1 0-3.736 1.867 1.867 0 0 1 0 3.736z"/></clipPath><clipPath id="wvcnam"><path d="M842.046 140.94a1.33 1.33 0 1 1-.002-2.66 1.33 1.33 0 0 1 .002 2.66z"/></clipPath><clipPath id="wvcnan"><path d="M858.406 133.9a.718.718 0 1 1 1.435 0 .718.718 0 0 1-1.435 0z"/></clipPath></defs><g><g><g><g><g><g/><g clip-path="url(#wvcna)"><path fill="#979075" d="M.096 145.97v-1.082H1.18v1.083z"/></g></g></g></g><g><g><g><g/><g clip-path="url(#wvcnb)"><path fill="#988f74" d="M15.603 154.565v-2.527h2.527v2.527z"/></g></g></g></g><g><g><g><g/><g clip-path="url(#wvcnc)"><path fill="#998e73" d="M33.138 158.266l-1.149 3.748h-.305v-3.748z"/></g><g clip-path="url(#wvcnc)"><path fill="#9a8d72" d="M31.99 162.014l1.148-3.748h2.295v3.748z"/></g></g></g></g><g><g><g><g/><g clip-path="url(#wvcnd)"><path fill="#9b8c71" d="M48.339 168.032v-4.789h4.788v4.789z"/></g></g></g></g><g><g><g><g/><g clip-path="url(#wvcne)"><path fill="#9c8b70" d="M71.22 171.358l-.266.866h-5.428v-5.694h5.694z"/></g><g clip-path="url(#wvcne)"><path fill="#9d8a6f" d="M70.954 172.224l.266-.866v.866z"/></g></g></g></g><g><g><g><g/><g clip-path="url(#wvcnf)"><path fill="#9d8a6f" d="M86.427 167.523l-2.001 6.53H83.08v-6.53z"/></g><g clip-path="url(#wvcnf)"><path fill="#9d896e" d="M84.426 174.052l2.001-6.53h3.182v6.53z"/></g></g></g></g><g><g><g><g/><g clip-path="url(#wvcng)"><path fill="#9d896e" d="M101.058 165.57l-.367 1.198v-1.198z"/></g><g clip-path="url(#wvcng)"><path fill="#9e886d" d="M100.69 166.768l.368-1.198h6.828v7.195h-7.195z"/></g></g></g></g><g><g><g><g/><g clip-path="url(#wvcnh)"><path fill="#9f876c" d="M117.59 167.798v-7.82h7.821v7.82z"/></g></g></g></g><g><g><g><g/><g clip-path="url(#wvcni)"><path fill="#9f876c" d="M133.701 150.627l-.827 2.7v-2.7z"/></g><g clip-path="url(#wvcni)"><path fill="#a0866b" d="M132.874 153.327l.827-2.7h7.495v8.323h-8.322z"/></g></g></g></g><g><g><g><g/><g clip-path="url(#wvcnj)"><path fill="#a0866b" d="M151.59 138.044l-2.677 8.733h-3.163v-8.733z"/></g><g clip-path="url(#wvcnj)"><path fill="#a1866a" d="M148.913 146.777l2.677-8.733h2.893v8.733z"/></g></g></g></g><g><g><g><g/><g clip-path="url(#wvcnk)"><path fill="#a0866b" d="M156.135 123.219l-.042.137v-.137z"/></g><g clip-path="url(#wvcnk)"><path fill="#a1866a" d="M156.093 123.356l.042-.137h9.1v9.144h-9.142z"/></g></g></g></g><g><g><g><g/><g clip-path="url(#wvcnl)"><path fill="#a1866a" d="M173.861 111.165l-1.658 5.409h-7.688v-9.347h9.346z"/></g><g clip-path="url(#wvcnl)"><path fill="#a28569" d="M172.203 116.574l1.658-5.41v5.41z"/></g></g></g></g><g><g><g><g/><g clip-path="url(#wvcnm)"><path fill="#a1866a" d="M180.161 90.612l-2.924 9.54h-5.567v-9.54z"/></g><g clip-path="url(#wvcnm)"><path fill="#a28569" d="M177.237 100.151l2.924-9.539h1.048v9.54z"/></g></g></g></g><g><g><g><g/><g clip-path="url(#wvcnn)"><path fill="#a1866a" d="M185.308 73.821l-2.983 9.73h-3.902v-9.73z"/></g><g clip-path="url(#wvcnn)"><path fill="#a28569" d="M182.325 83.552l2.983-9.73h2.845v9.73z"/></g></g></g></g><g><g><g><g/><g clip-path="url(#wvcno)"><path fill="#a1866a" d="M190.3 57.537l-2.962 9.661h-1.205v-9.66z"/></g><g clip-path="url(#wvcno)"><path fill="#a28569" d="M187.338 67.198l2.962-9.66h5.494v9.66z"/></g></g></g></g><g><g><g><g/><g clip-path="url(#wvcnp)"><path fill="#a28569" d="M206.687 49.85l-.943 3.077h-8.6v-9.544h9.543z"/></g><g clip-path="url(#wvcnp)"><path fill="#a38468" d="M205.744 52.928l.943-3.077v3.077z"/></g></g></g></g><g><g><g><g/><g clip-path="url(#wvcnq)"><path fill="#a38468" d="M223.228 41.664l-1.753 5.72h-7.385v-9.138h9.138z"/></g><g clip-path="url(#wvcnq)"><path fill="#a48367" d="M221.475 47.384l1.753-5.72v5.72z"/></g></g></g></g><g><g><g><g/><g clip-path="url(#wvcnr)"><path fill="#a48367" d="M236.082 45.507l-2.63 8.582h-2.709v-8.582z"/></g><g clip-path="url(#wvcnr)"><path fill="#a58266" d="M233.452 54.089l2.63-8.582h3.242v8.582z"/></g></g></g></g><g><g><g><g/><g clip-path="url(#wvcns)"><path fill="#a58266" d="M246.123 58.527l-2.198 7.172v-7.172z"/></g><g clip-path="url(#wvcns)"><path fill="#a68165" d="M243.925 65.699l2.198-7.172h5.637v7.835h-7.835z"/></g></g></g></g><g><g><g><g/><g clip-path="url(#wvcnt)"><path fill="#a68165" d="M255.606 73.367l-.542 1.766v-1.766z"/></g><g clip-path="url(#wvcnt)"><path fill="#a78064" d="M255.064 75.133l.542-1.766h6.548v7.089h-7.09z"/></g></g></g></g><g><g><g><g/><g clip-path="url(#wvcnu)"><path fill="#a87f63" d="M265.246 95.227v-6.331h6.331v6.331z"/></g></g></g></g><g><g><g><g/><g clip-path="url(#wvcnv)"><path fill="#a87e62" d="M275.091 110.203v-5.558h5.558v5.558z"/></g></g></g></g><g><g><g><g/><g clip-path="url(#wvcnw)"><path fill="#a97d61" d="M285.067 125.095v-4.785h4.785v4.785z"/></g></g></g></g><g><g><g><g/><g clip-path="url(#wvcnx)"><path fill="#aa7c60" d="M295.605 139.642v-4.134h4.135v4.134z"/></g></g></g></g><g><g><g><g/><g clip-path="url(#wvcny)"><path fill="#ab7b5f" d="M307.342 153.302v-3.666h3.665v3.666z"/></g></g></g></g><g><g><g><g/><g clip-path="url(#wvcnz)"><path fill="#ac7a5e" d="M321.302 164.685v-3.425h3.424v3.425z"/></g></g></g></g><g><g><g><g/><g clip-path="url(#wvcnA)"><path fill="#ad795d" d="M339.26 166.67l-.855 2.785v-2.785z"/></g><g clip-path="url(#wvcnA)"><path fill="#ae785c" d="M338.405 169.455l.854-2.785h2.41v3.264h-3.264z"/></g></g></g></g><g><g><g><g/><g clip-path="url(#wvcnB)"><path fill="#af775b" d="M355.47 165.094v-3.352h3.35v3.352z"/></g></g></g></g><g><g><g><g/><g clip-path="url(#wvcnC)"><path fill="#af775b" d="M372.304 150.42l-.857 2.793h-2.624v-3.48h3.48z"/></g><g clip-path="url(#wvcnC)"><path fill="#b0765a" d="M371.447 153.213l.857-2.793v2.793z"/></g></g></g></g><g><g><g><g/><g clip-path="url(#wvcnD)"><path fill="#b0765a" d="M379.12 138.72v-3.833h3.833v3.833z"/></g></g></g></g><g><g><g><g/><g clip-path="url(#wvcnE)"><path fill="#b0765a" d="M387.695 123.2v-4.288h4.288v4.289z"/></g></g></g></g><g><g><g><g/><g clip-path="url(#wvcnF)"><path fill="#b0765a" d="M400.171 105.283l-.62 2.024h-4.29v-4.91h4.91z"/></g><g clip-path="url(#wvcnF)"><path fill="#b17559" d="M399.55 107.307l.621-2.024v2.024z"/></g></g></g></g><g><g><g><g/><g clip-path="url(#wvcnG)"><path fill="#b0765a" d="M406.188 85.655l-1.696 5.532h-2.09v-5.532z"/></g><g clip-path="url(#wvcnG)"><path fill="#b17559" d="M404.492 91.187l1.696-5.532h1.745v5.532z"/></g></g></g></g><g><g><g><g/><g clip-path="url(#wvcnH)"><path fill="#b0765a" d="M411.334 68.866l-1.882 6.14v-6.14z"/></g><g clip-path="url(#wvcnH)"><path fill="#b17559" d="M409.452 75.007l1.882-6.14h4.306v6.188h-6.188z"/></g></g></g></g><g><g><g><g/><g clip-path="url(#wvcnI)"><path fill="#b17559" d="M416.758 59.081v-6.904h6.904v6.904z"/></g></g></g></g><g><g><g><g/><g clip-path="url(#wvcnJ)"><path fill="#b17559" d="M424.798 43.467v-7.62h7.62v7.62z"/></g></g></g></g><g><g><g><g/><g clip-path="url(#wvcnK)"><path fill="#b17559" d="M440.222 20.399l-2.539 8.284h-3.39v-8.284z"/></g><g clip-path="url(#wvcnK)"><path fill="#b27458" d="M437.683 28.683l2.54-8.284h2.354v8.284z"/></g></g></g></g><g><g><g><g/><g clip-path="url(#wvcnL)"><path fill="#b27458" d="M446.543 16.069v-8.85h8.85v8.85z"/></g></g></g></g><g><g><g><g/><g clip-path="url(#wvcnM)"><path fill="#b37357" d="M472.224 7.55l-.732 2.388h-8.56V.646h9.292z"/></g><g clip-path="url(#wvcnM)"><path fill="#b37355" d="M471.492 9.938l.732-2.388v2.388z"/></g></g></g></g><g><g><g><g/><g clip-path="url(#wvcnN)"><path fill="#b37355" d="M486.833 5.667l-2.967 9.679h-4.207v-9.68z"/></g><g clip-path="url(#wvcnN)"><path fill="#b47254" d="M483.866 15.346l2.967-9.68h2.504v9.68z"/></g></g></g></g><g><g><g><g/><g clip-path="url(#wvcnO)"><path fill="#b47254" d="M496.985 18.325l-3.056 9.967h-1.81v-9.967z"/></g><g clip-path="url(#wvcnO)"><path fill="#b57153" d="M493.93 28.292l3.055-9.967h5.1v9.967z"/></g></g></g></g><g><g><g><g/><g clip-path="url(#wvcnP)"><path fill="#b57153" d="M506.433 33.278l-3.138 10.237h-1.44V33.278z"/></g><g clip-path="url(#wvcnP)"><path fill="#b67052" d="M503.295 43.515l3.138-10.237h5.659v10.237z"/></g></g></g></g><g><g><g><g/><g clip-path="url(#wvcnQ)"><path fill="#b67052" d="M515.693 48.845l-3.22 10.506h-1.884V48.845z"/></g><g clip-path="url(#wvcnQ)"><path fill="#b76f51" d="M512.472 59.35l3.22-10.505h5.402V59.35z"/></g></g></g></g><g><g><g><g/><g clip-path="url(#wvcnR)"><path fill="#b76f51" d="M524.95 64.422l-3.303 10.775h-2.335V64.422z"/></g><g clip-path="url(#wvcnR)"><path fill="#b86e50" d="M521.647 75.197l3.303-10.775h5.137v10.775z"/></g></g></g></g><g><g><g><g/><g clip-path="url(#wvcnS)"><path fill="#b86e50" d="M534.336 79.577l-3.386 11.045h-2.2V79.577z"/></g><g clip-path="url(#wvcnS)"><path fill="#b96d4f" d="M530.95 90.622l3.386-11.045h5.46v11.045z"/></g></g></g></g><g><g><g><g/><g clip-path="url(#wvcnT)"><path fill="#b96d4f" d="M544.022 93.755l-3.469 11.315h-.968V93.755z"/></g><g clip-path="url(#wvcnT)"><path fill="#ba6c4e" d="M540.553 105.07l3.469-11.315h6.877v11.315z"/></g></g></g></g><g><g><g><g/><g clip-path="url(#wvcnU)"><path fill="#ba6c4e" d="M554.268 106.103l-1.753 5.72v-5.72z"/></g><g clip-path="url(#wvcnU)"><path fill="#bb6b4d" d="M552.515 111.824l1.753-5.72h9.756v11.509h-11.51z"/></g></g></g></g><g><g><g><g/><g clip-path="url(#wvcnV)"><path fill="#bc6a4c" d="M579.48 115.408l-3.51 11.45h-8.033v-11.542h11.543z"/></g><g clip-path="url(#wvcnV)"><path fill="#bd694b" d="M575.97 126.858l3.51-11.45v11.45z"/></g></g></g></g><g><g><g><g/><g clip-path="url(#wvcnW)"><path fill="#bd694b" d="M592.097 120.02l-3.548 11.575h-3.268v-11.574z"/></g><g clip-path="url(#wvcnW)"><path fill="#be684a" d="M588.55 131.595l3.547-11.574h4.76v11.574z"/></g></g></g></g><g><g><g><g/><g clip-path="url(#wvcnX)"><path fill="#be684a" d="M606.28 119.527l-3.01 9.818v-9.818z"/></g><g clip-path="url(#wvcnX)"><path fill="#be6749" d="M603.27 129.345l3.01-9.818h8.524v11.532H603.27z"/></g></g></g></g><g><g><g><g/><g clip-path="url(#wvcnY)"><path fill="#be6749" d="M621.893 114.368l-1.297 4.234v-4.234z"/></g><g clip-path="url(#wvcnY)"><path fill="#bf6648" d="M620.596 118.602l1.297-4.234h10.013v11.311h-11.31z"/></g></g></g></g><g><g><g><g/><g clip-path="url(#wvcnZ)"><path fill="#bf6648" d="M638.439 106.167l-1.744 5.689v-5.689z"/></g><g clip-path="url(#wvcnZ)"><path fill="#c06547" d="M636.695 111.856l1.744-5.689h9.347v11.091h-11.09z"/></g></g></g></g><g><g><g><g/><g clip-path="url(#wvcnaa)"><path fill="#c06547" d="M655.439 96.483l-3.332 10.87h-.157v-10.87z"/></g><g clip-path="url(#wvcnaa)"><path fill="#c16446" d="M652.107 107.353l3.332-10.87h7.38v10.87z"/></g></g></g></g><g><g><g><g/><g clip-path="url(#wvcnab)"><path fill="#c16446" d="M672.514 86.554l-3.219 10.5h-2.224v-10.5z"/></g><g clip-path="url(#wvcnab)"><path fill="#c26345" d="M669.295 97.055l3.22-10.5h5.057v10.5z"/></g></g></g></g><g><g><g><g/><g clip-path="url(#wvcnac)"><path fill="#c26345" d="M689.336 77.453l-3.094 10.09h-3.52v-10.09z"/></g><g clip-path="url(#wvcnac)"><path fill="#c36244" d="M686.242 87.544l3.094-10.091h3.477v10.09z"/></g></g></g></g><g><g><g><g/><g clip-path="url(#wvcnad)"><path fill="#c36244" d="M705.414 70.775l-2.968 9.682h-2.875v-9.682z"/></g><g clip-path="url(#wvcnad)"><path fill="#c46143" d="M702.446 80.457l2.968-9.682h3.84v9.682z"/></g></g></g></g><g><g><g><g/><g clip-path="url(#wvcnae)"><path fill="#c46143" d="M719.975 69.048l-2.295 7.488v-7.488z"/></g><g clip-path="url(#wvcnae)"><path fill="#c56042" d="M717.68 76.536l2.295-7.488h6.853v9.15h-9.148z"/></g></g></g></g><g><g><g><g/><g clip-path="url(#wvcnaf)"><path fill="#c66041" d="M735.338 82.416v-8.584h8.583v8.584z"/></g></g></g></g><g><g><g><g/><g clip-path="url(#wvcnag)"><path fill="#c75f40" d="M757.48 84.025l-2.447 7.98h-4.385v-7.98z"/></g><g clip-path="url(#wvcnag)"><path fill="#c85e3f" d="M755.033 92.006l2.446-7.981h1.15v7.98z"/></g></g></g></g><g><g><g><g/><g clip-path="url(#wvcnah)"><path fill="#c85e3f" d="M767.393 97.461l-2.206 7.195h-1.714V97.46z"/></g><g clip-path="url(#wvcnah)"><path fill="#c95d3e" d="M765.187 104.656l2.206-7.195h3.275v7.195z"/></g></g></g></g><g><g><g><g/><g clip-path="url(#wvcnai)"><path fill="#c95d3e" d="M777.04 111.762l-1.687 5.507v-5.507z"/></g><g clip-path="url(#wvcnai)"><path fill="#c95c3d" d="M775.353 117.269l1.688-5.507h4.72v6.408h-6.408z"/></g></g></g></g><g><g><g><g/><g clip-path="url(#wvcnaj)"><path fill="#ca5b3c" d="M788.392 130.613v-5.621h5.621v5.621z"/></g></g></g></g><g><g><g><g/><g clip-path="url(#wvcnak)"><path fill="#cb5a3b" d="M804.155 139.536v-4.812h4.812v4.812z"/></g></g></g></g><g><g><g><g/><g clip-path="url(#wvcnal)"><path fill="#cc593a" d="M824.78 139.126l-1.145 3.736h-1.398v-3.736z"/></g><g clip-path="url(#wvcnal)"><path fill="#cd5839" d="M823.635 142.862l1.145-3.736h1.193v3.736z"/></g></g></g></g><g><g><g><g/><g clip-path="url(#wvcnam)"><path fill="#ce5738" d="M840.715 140.94v-2.66h2.66v2.66z"/></g></g></g></g><g><g><g><g/><g clip-path="url(#wvcnan)"><path fill="#cf5637" d="M858.406 134.617v-1.436h1.435v1.436z"/></g></g></g></g></g><g><g><path fill="#a28569" d="M104.146 92.521h2.363l-4.201 12.423h-1.784l-1.966-7.085-1.929 7.085h-1.803l-4.182-12.423h2.362l2.74 8.691 1.948-6.975h1.748l1.946 7.011z"/></g><g><path fill="#a28569" d="M108.663 100.005c.252-1.28 1.17-1.84 2.289-1.84 1.172 0 2.074.686 2.199 1.84zm6.526 1.46c.018-.305.036-.578.036-.812 0-2.632-1.894-4.346-4.291-4.346-2.416 0-4.418 1.732-4.418 4.418 0 2.632 1.912 4.436 4.418 4.436 1.533 0 3.028-.686 3.804-1.91l-1.407-1.065c-.487.685-1.37 1.08-2.271 1.08-1.263 0-2.163-.629-2.397-1.801h6.526z"/></g><g><path fill="#a28569" d="M121.72 103.212c-1.28 0-2.435-1.026-2.435-2.503 0-1.481 1.227-2.453 2.435-2.453 1.297 0 2.38 1.044 2.38 2.453 0 1.405-1.083 2.503-2.38 2.503zm4.47-2.487c0-2.704-1.91-4.418-4.127-4.418-1.064 0-2.237.433-2.814 1.335v-5.696h-2.09v12.998h2.09v-1.136c.577.902 1.786 1.353 2.796 1.353 2.217 0 4.145-1.748 4.145-4.436z"/></g><g><path fill="#a28569" d="M127.603 102.348h1.966c0 .576.503 1.119 1.387 1.119.83 0 1.37-.417 1.37-.956 0-.47-.36-.686-.991-.83l-1.117-.289c-1.894-.505-2.38-1.513-2.38-2.577 0-1.317 1.298-2.508 3.136-2.508 1.497 0 3.19.758 3.173 2.634h-2c0-.577-.524-.936-1.119-.936-.65 0-1.098.377-1.098.9 0 .433.413.684.9.794l1.353.359c1.892.488 2.234 1.677 2.234 2.453 0 1.712-1.711 2.65-3.425 2.65-1.676 0-3.353-1.01-3.39-2.813z"/></g><g><path fill="#a28569" d="M136.37 104.944v-8.42h2.09v8.42zm-.325-11.393c0-.74.63-1.28 1.37-1.28.756 0 1.351.54 1.351 1.28 0 .72-.595 1.28-1.35 1.28-.74 0-1.371-.56-1.371-1.28z"/></g><g><path fill="#a28569" d="M145.585 96.524v1.66h-1.786v6.76h-2.09v-6.76h-1.516v-1.66h1.516v-3.1h2.09v3.1z"/></g><g><path fill="#a28569" d="M148.653 100.005c.25-1.28 1.17-1.84 2.29-1.84 1.17 0 2.072.686 2.198 1.84zm6.525 1.46c.018-.305.036-.578.036-.812 0-2.632-1.893-4.346-4.29-4.346-2.417 0-4.417 1.732-4.417 4.418 0 2.632 1.912 4.436 4.417 4.436 1.532 0 3.029-.686 3.804-1.91l-1.407-1.065c-.487.685-1.369 1.08-2.27 1.08-1.263 0-2.165-.629-2.398-1.801h6.525z"/></g></g><g><g><path fill="#a58266" d="M177.84 17.739h-2.453l-4.74-5.228v5.228h-1.84V5.317h1.84v5.338l3.985-5.338h2.253l-4.67 6.22z"/></g><g><path fill="#a58266" d="M182.316 16.297c-1.441 0-2.65-1.136-2.65-2.776 0-1.623 1.209-2.758 2.65-2.758 1.443 0 2.668 1.135 2.668 2.758 0 1.64-1.225 2.776-2.668 2.776zm0 1.66c2.397 0 4.435-1.768 4.435-4.436s-2.038-4.417-4.435-4.417-4.418 1.75-4.418 4.417c0 2.668 2.02 4.436 4.418 4.436z"/></g><g><path fill="#a58266" d="M196.727 12.926v4.813h-1.768v-4.705c0-1.37-.828-2.2-1.91-2.2-1.1 0-2.434.63-2.434 2.38v4.525h-1.768V9.32h1.768v1.299c.487-1.046 1.838-1.515 2.74-1.515 2.127 0 3.39 1.425 3.372 3.822z"/></g><g><path fill="#a58266" d="M207.008 17.739h-2.307l-3.678-4.001v4h-1.767V4.74h1.767v7.446l2.758-2.866h2.398l-3.552 3.642z"/></g><g><path fill="#a58266" d="M214.17 9.32h1.767v8.419h-1.768v-1.28c-.487 1.027-1.838 1.498-2.722 1.498-2.126 0-3.407-1.425-3.389-3.824V9.32h1.768v4.76c0 1.387.828 2.217 1.91 2.217 1.1 0 2.433-.65 2.433-2.397z"/></g><g><path fill="#a58266" d="M224.163 9.41l-.307 1.676a2.97 2.97 0 0 0-1.243-.287c-1.533 0-2.255 1.64-2.255 3.91v3.03h-1.784V9.32h1.784v1.892c.433-1.477 1.281-2.108 2.363-2.108.577 0 1.171.144 1.442.306z"/></g><g><path fill="#a58266" d="M231.251 9.41l-.306 1.676a2.97 2.97 0 0 0-1.243-.287c-1.533 0-2.255 1.64-2.255 3.91v3.03h-1.784V9.32h1.784v1.892c.433-1.477 1.281-2.108 2.363-2.108.578 0 1.171.144 1.442.306z"/></g><g><path fill="#a58266" d="M233.799 12.818c.252-1.407 1.224-2.073 2.523-2.073 1.299 0 2.253.756 2.433 2.073zm6.688 1.423c.018-.269.036-.523.036-.756 0-2.651-1.822-4.381-4.219-4.381-2.399 0-4.345 1.73-4.345 4.4 0 2.667 1.912 4.453 4.345 4.453 1.604 0 3.119-.758 3.858-2.165l-1.407-.703c-.469.775-1.389 1.226-2.379 1.226-1.353 0-2.361-.703-2.596-2.074h6.707z"/></g><g><path fill="#a58266" d="M250.478 12.926v4.813h-1.766v-4.705c0-1.37-.83-2.2-1.91-2.2-1.1 0-2.435.63-2.435 2.38v4.525h-1.766V9.32h1.766v1.299c.487-1.046 1.84-1.515 2.742-1.515 2.127 0 3.387 1.425 3.37 3.822z"/></g><g><path fill="#a58266" d="M259.86 9.32v1.443l-4.959 5.318h4.959v1.658h-7.446v-1.442l4.868-5.32h-4.58V9.32z"/></g></g><g><g><path fill="#b0765a" d="M301.746 195.003h.09v11.936h-1.765v-9.393l-2.544 1.009v-1.694z"/></g><g><path fill="#b0765a" d="M317.005 194.516v1.695h-3.698v10.728h-1.856V196.21h-3.696v-1.695z"/></g><g><path fill="#b0765a" d="M320.939 205.496c-1.48 0-2.614-1.261-2.614-2.776 0-1.498 1.135-2.758 2.578-2.758 1.351 0 2.704 1.134 2.704 2.758 0 1.587-1.261 2.776-2.668 2.776zm2.686-5.715c-.541-.956-1.694-1.479-2.92-1.479-2.38 0-4.166 1.912-4.166 4.418 0 2.595 1.895 4.435 4.093 4.435 1.3 0 2.452-.667 2.993-1.641v1.425h1.768v-8.42h-1.768z"/></g><g><path fill="#b0765a" d="M331.906 205.496c-1.443 0-2.614-1.225-2.614-2.794 0-1.586 1.171-2.74 2.614-2.74a2.713 2.713 0 0 1 2.686 2.74c0 1.693-1.263 2.794-2.686 2.794zm2.704-5.75c-.577-.939-1.748-1.444-2.92-1.444-2.271 0-4.165 1.732-4.165 4.418 0 2.667 1.894 4.435 4.183 4.435 1.118 0 2.325-.523 2.902-1.443v.217c0 2.667-1.1 3.678-2.866 3.678-.92 0-1.894-.524-2.361-1.425l-1.498.74a4.318 4.318 0 0 0 3.859 2.324c2.83 0 4.634-1.55 4.634-5.462v-7.265h-1.768z"/></g><g><path fill="#b0765a" d="M351.384 202.124v4.815h-1.766v-4.706c0-1.371-.83-2.2-1.91-2.2-1.1 0-2.436.632-2.436 2.38v4.526h-1.765v-8.42h1.765v1.298c.487-1.046 1.84-1.515 2.74-1.515 2.129 0 3.39 1.425 3.372 3.822z"/></g><g><path fill="#b0765a" d="M353.914 206.939v-8.42h1.766v8.42zm-.324-11.485c0-.648.559-1.135 1.207-1.135.667 0 1.208.487 1.208 1.135 0 .65-.541 1.136-1.208 1.136-.648 0-1.207-.487-1.207-1.136z"/></g><g><path fill="#b0765a" d="M357.775 202.72c0-2.668 2.108-4.418 4.543-4.418 1.37 0 2.542.56 3.282 1.443l-1.173 1.1c-.487-.543-1.226-.883-2.074-.883-1.568 0-2.812 1.154-2.812 2.758 0 1.603 1.244 2.776 2.812 2.776.848 0 1.587-.343 2.074-.882l1.173 1.098c-.74.884-1.912 1.443-3.282 1.443-2.435 0-4.543-1.768-4.543-4.435z"/></g><g><path fill="#b0765a" d="M375.393 202.124v4.815h-1.766v-4.706c0-1.371-.83-2.2-1.912-2.2-1.099 0-2.434.648-2.434 2.38v4.526h-1.766V193.94h1.766v5.86c.487-1.029 1.84-1.498 2.74-1.498 2.129 0 3.39 1.425 3.372 3.822z"/></g><g><path fill="#b0765a" d="M382.086 198.518v1.48h-1.802v6.94h-1.767v-6.94h-1.514v-1.48h1.514v-3.154h1.767v3.154z"/></g><g><path fill="#b0765a" d="M383.082 204.413h1.64c0 .668.595 1.245 1.551 1.245.972 0 1.568-.487 1.568-1.117 0-.56-.451-.847-1.083-.992l-1.134-.27c-1.57-.415-2.29-1.227-2.29-2.47 0-1.37 1.244-2.507 2.991-2.507 1.443 0 2.995.758 2.995 2.524h-1.696c0-.612-.631-1.027-1.263-1.027-.737 0-1.242.487-1.242 1.063 0 .525.487.811 1.01.938l1.279.306c1.803.451 2.2 1.57 2.2 2.472 0 1.603-1.587 2.577-3.319 2.577-1.567 0-3.173-.974-3.207-2.742z"/></g></g><g><g><path fill="#c85e3f" d="M707.817 17.031h1.983l-4.201 12.423h-1.568l-2.129-7.536-2.09 7.536h-1.57l-4.199-12.423h1.983l2.992 9.393 2.183-7.697h1.423l2.183 7.697z"/></g><g><path fill="#c85e3f" d="M711.791 24.532c.253-1.407 1.227-2.073 2.524-2.073 1.298 0 2.254.758 2.435 2.073zm6.689 1.425c.018-.27.036-.523.036-.758 0-2.651-1.82-4.381-4.22-4.381-2.397 0-4.343 1.73-4.343 4.4 0 2.667 1.91 4.453 4.344 4.453 1.605 0 3.118-.758 3.858-2.165l-1.405-.703c-.47.775-1.39 1.226-2.381 1.226-1.351 0-2.361-.703-2.596-2.072h6.707z"/></g><g><path fill="#c85e3f" d="M725.065 28.011c-1.405 0-2.686-1.1-2.686-2.794s1.39-2.74 2.686-2.74c1.461 0 2.614 1.155 2.614 2.74 0 1.57-1.153 2.794-2.614 2.794zm4.4-2.776c0-2.687-1.894-4.417-4.183-4.417-1.19 0-2.361.505-2.92 1.46v-5.822h-1.768v12.998h1.767v-1.262c.56.956 1.784 1.479 2.92 1.479 2.272 0 4.184-1.768 4.184-4.436z"/></g><g><path fill="#c85e3f" d="M730.95 26.929h1.639c0 .667.595 1.245 1.551 1.245.972 0 1.568-.487 1.568-1.119 0-.559-.451-.846-1.08-.99l-1.137-.27c-1.57-.415-2.29-1.227-2.29-2.47 0-1.37 1.244-2.507 2.993-2.507 1.442 0 2.993.757 2.993 2.523h-1.696c0-.611-.631-1.026-1.26-1.026-.74 0-1.245.487-1.245 1.062 0 .523.487.812 1.01.938l1.279.307c1.804.45 2.2 1.57 2.2 2.471 0 1.604-1.587 2.578-3.317 2.578-1.57 0-3.173-.974-3.209-2.742z"/></g><g><path fill="#c85e3f" d="M740.85 24.532c.253-1.407 1.225-2.073 2.524-2.073s2.253.758 2.433 2.073zm6.689 1.425c.018-.27.036-.523.036-.758 0-2.651-1.822-4.381-4.22-4.381-2.396 0-4.344 1.73-4.344 4.4 0 2.667 1.912 4.453 4.345 4.453 1.605 0 3.119-.758 3.858-2.165l-1.407-.703c-.469.775-1.389 1.226-2.379 1.226-1.353 0-2.361-.703-2.596-2.072h6.707z"/></g><g><path fill="#c85e3f" d="M749.653 29.454v-8.42h1.766v8.42zm-.325-11.485c0-.647.56-1.134 1.209-1.134.666 0 1.207.487 1.207 1.134 0 .65-.541 1.137-1.207 1.137-.65 0-1.209-.487-1.209-1.137z"/></g><g><path fill="#c85e3f" d="M758.346 21.034v1.48h-1.804v6.94h-1.766v-6.94h-1.515v-1.48h1.515V17.88h1.766v3.155z"/></g><g><path fill="#c85e3f" d="M761.161 24.532c.251-1.407 1.225-2.073 2.524-2.073 1.297 0 2.253.758 2.433 2.073zm6.689 1.425c.018-.27.036-.523.036-.758 0-2.651-1.822-4.381-4.22-4.381-2.398 0-4.345 1.73-4.345 4.4 0 2.667 1.913 4.453 4.346 4.453 1.604 0 3.119-.758 3.858-2.165l-1.407-.703c-.469.775-1.389 1.226-2.379 1.226-1.353 0-2.363-.703-2.597-2.072h6.708z"/></g><g><path fill="#c85e3f" d="M696.459 53.335c1.028-1.441 1.605-2.614 1.37-4.778h1.604c.18 2.11-.613 4.02-1.982 5.175zm-2.722 0c1.028-1.441 1.585-2.614 1.369-4.778h1.587c.199 2.11-.595 4.02-1.964 5.175z"/></g><g><path fill="#c85e3f" d="M709.208 47.655c0 2.164-1.712 3.662-4.129 3.662-1.676 0-3.1-.884-3.838-2.4l1.387-.847c.559.992 1.407 1.587 2.379 1.587 1.407 0 2.417-.83 2.417-1.982 0-1.263-1.01-2.11-2.399-2.11h-1.207v-1.46h1.028c1.243 0 2.037-.722 2.019-1.732 0-.936-.722-1.531-1.768-1.531-.792 0-1.604.415-2.054 1.062l-1.155-1.026c.65-1.028 1.912-1.714 3.281-1.714 2.075 0 3.48 1.263 3.48 3.173 0 1.082-.577 2.002-1.496 2.434 1.225.414 2.055 1.497 2.055 2.884z"/></g><g><path fill="#c85e3f" d="M715.704 42.68v1.479H713.9V51.1h-1.767V44.16h-1.515v-1.48h1.515v-3.154h1.767v3.155z"/></g><g><path fill="#c85e3f" d="M718.52 46.177c.252-1.407 1.226-2.072 2.523-2.072 1.299 0 2.253.758 2.433 2.072zm6.688 1.425c.018-.27.036-.523.036-.757 0-2.652-1.822-4.382-4.22-4.382-2.397 0-4.345 1.73-4.345 4.4 0 2.668 1.912 4.454 4.346 4.454 1.605 0 3.119-.758 3.858-2.165l-1.407-.704c-.469.776-1.387 1.227-2.38 1.227-1.35 0-2.36-.703-2.595-2.073h6.707z"/></g><g><path fill="#c85e3f" d="M726.709 48.575h1.641c0 .667.595 1.244 1.55 1.244.974 0 1.569-.487 1.569-1.118 0-.56-.451-.846-1.082-.99l-1.135-.27c-1.57-.416-2.29-1.227-2.29-2.47 0-1.371 1.244-2.508 2.992-2.508 1.443 0 2.992.758 2.992 2.524h-1.694c0-.612-.631-1.026-1.262-1.026-.738 0-1.243.487-1.243 1.062 0 .523.487.812 1.008.938l1.281.307c1.802.45 2.199 1.569 2.199 2.47 0 1.604-1.586 2.579-3.317 2.579-1.568 0-3.173-.975-3.21-2.742z"/></g><g><path fill="#c85e3f" d="M753.073 46.286V51.1h-1.786v-4.724c0-1.37-.721-2.217-1.856-2.217-1.389-.018-2.11.972-2.11 2.74V51.1h-1.784v-4.724c0-1.37-.722-2.217-1.766-2.217-1.1 0-2.219.703-2.219 2.415V51.1h-1.766v-8.42h1.766v1.389c.343-.992 1.48-1.606 2.632-1.606 1.226 0 2.255.65 2.76 1.766.72-1.459 2.036-1.766 2.884-1.766 2.109 0 3.245 1.425 3.245 3.823z"/></g><g><path fill="#c85e3f" d="M759.464 49.657c-1.48 0-2.615-1.26-2.615-2.776 0-1.497 1.136-2.758 2.579-2.758 1.35 0 2.704 1.135 2.704 2.758 0 1.587-1.263 2.776-2.668 2.776zm2.686-5.714c-.541-.956-1.696-1.48-2.92-1.48-2.381 0-4.165 1.912-4.165 4.418 0 2.596 1.892 4.436 4.092 4.436 1.297 0 2.452-.668 2.993-1.642V51.1h1.766v-8.42h-1.766z"/></g><g><path fill="#c85e3f" d="M766.573 51.1V38.102h1.766V51.1z"/></g><g><path fill="#c85e3f" d="M773.408 43.311c-.199-2.126.595-4.039 1.982-5.191l.974.397c-1.028 1.44-1.587 2.631-1.371 4.794zm-2.723 0c-.198-2.126.594-4.039 1.965-5.191l.992.397c-1.028 1.44-1.605 2.631-1.37 4.794z"/></g></g><g><g><path fill="#b27458" d="M284.163 54.656H286c.036 1.064 1.028 2.09 2.578 2.09 1.479 0 2.343-.938 2.343-1.964 0-1.1-.99-1.624-2-1.894l-1.586-.395c-2.652-.668-3.083-2.237-3.083-3.265 0-2.18 1.928-3.642 4.127-3.642 2.235 0 3.985 1.407 3.985 3.68h-1.838c0-1.173-.92-1.984-2.2-1.984-1.173 0-2.218.775-2.218 1.91 0 .397.126 1.208 1.694 1.623l1.57.433c2.09.56 3.407 1.624 3.407 3.444 0 2.072-1.696 3.75-4.201 3.75-2.65 0-4.416-1.786-4.416-3.786z"/></g><g><path fill="#b27458" d="M298.77 56.782c-1.441 0-2.65-1.134-2.65-2.776 0-1.621 1.209-2.758 2.65-2.758 1.443 0 2.668 1.137 2.668 2.758 0 1.642-1.225 2.776-2.668 2.776zm0 1.66c2.4 0 4.436-1.768 4.436-4.436s-2.037-4.417-4.436-4.417c-2.397 0-4.417 1.75-4.417 4.417 0 2.668 2.02 4.436 4.417 4.436z"/></g><g><path fill="#b27458" d="M304.743 54.006c0-2.668 2.11-4.417 4.543-4.417 1.371 0 2.542.559 3.281 1.443l-1.172 1.1c-.487-.541-1.225-.884-2.073-.884-1.569 0-2.812 1.155-2.812 2.758 0 1.606 1.243 2.776 2.812 2.776.848 0 1.586-.34 2.073-.882L312.568 57c-.74.884-1.91 1.443-3.282 1.443-2.433 0-4.543-1.768-4.543-4.436z"/></g><g><path fill="#b27458" d="M314.483 58.225v-8.42h1.768v8.42zm-.325-11.485c0-.647.56-1.134 1.209-1.134.667 0 1.209.487 1.209 1.134 0 .65-.542 1.137-1.209 1.137-.65 0-1.209-.487-1.209-1.137z"/></g><g><path fill="#b27458" d="M322.76 56.782c-1.478 0-2.613-1.26-2.613-2.776 0-1.497 1.135-2.758 2.578-2.758 1.353 0 2.704 1.137 2.704 2.758 0 1.588-1.261 2.776-2.668 2.776zm2.687-5.714c-.541-.956-1.694-1.48-2.92-1.48-2.38 0-4.166 1.913-4.166 4.418 0 2.596 1.894 4.436 4.093 4.436 1.299 0 2.452-.668 2.993-1.642v1.425h1.767v-8.42h-1.767z"/></g><g><path fill="#b27458" d="M329.87 58.225V45.227h1.766v12.998z"/></g><g><path fill="#b27458" d="M353.328 58.225h-1.838l-1.1-9.013-3.696 7.642h-1.586l-3.732-7.642-1.1 9.013h-1.838l1.513-12.42h1.66l4.273 8.94 4.271-8.94h1.66z"/></g><g><path fill="#b27458" d="M356.835 53.303c.252-1.407 1.226-2.073 2.525-2.073 1.297 0 2.253.758 2.433 2.073zm6.688 1.425c.018-.27.036-.523.036-.758 0-2.65-1.82-4.381-4.217-4.381-2.399 0-4.345 1.731-4.345 4.4 0 2.667 1.91 4.453 4.345 4.453 1.604 0 3.119-.758 3.857-2.165l-1.406-.701c-.468.773-1.388 1.224-2.379 1.224-1.353 0-2.363-.701-2.597-2.072h6.706z"/></g><g><path fill="#b27458" d="M369.496 56.782c-1.441 0-2.614-1.224-2.614-2.794 0-1.585 1.173-2.74 2.614-2.74 1.299 0 2.687 1.046 2.687 2.74 0 1.696-1.262 2.794-2.687 2.794zm2.705-5.732c-.559-.956-1.731-1.461-2.92-1.461-2.273 0-4.165 1.731-4.165 4.417 0 2.668 1.892 4.436 4.183 4.436 1.135 0 2.343-.523 2.902-1.48v1.263h1.766V45.227h-1.766z"/></g><g><path fill="#b27458" d="M376.605 58.225v-8.42h1.767v8.42zm-.323-11.485c0-.647.557-1.134 1.206-1.134.668 0 1.209.487 1.209 1.134 0 .65-.541 1.137-1.209 1.137-.649 0-1.206-.487-1.206-1.137z"/></g><g><path fill="#b27458" d="M384.882 56.782c-1.477 0-2.613-1.26-2.613-2.776 0-1.497 1.136-2.758 2.577-2.758 1.353 0 2.704 1.137 2.704 2.758 0 1.588-1.26 2.776-2.668 2.776zm2.686-5.714c-.54-.956-1.694-1.48-2.92-1.48-2.38 0-4.165 1.913-4.165 4.418 0 2.596 1.894 4.436 4.093 4.436 1.298 0 2.453-.668 2.992-1.642v1.425h1.768v-8.42h-1.768z"/></g></g><g><g><path fill="#b96d4f" d="M548.05 16.658h1.982l-4.2 12.421h-1.568l-2.127-7.536-2.093 7.536h-1.567l-4.201-12.42h1.984l2.993 9.392 2.18-7.699h1.425l2.181 7.699z"/></g><g><path fill="#b96d4f" d="M552.025 24.159c.251-1.407 1.225-2.075 2.524-2.075 1.297 0 2.253.758 2.433 2.075zm6.725.665c0-2.65-1.822-4.381-4.22-4.381-2.396 0-4.344 1.731-4.344 4.4 0 2.667 1.912 4.453 4.345 4.453 1.603 0 3.119-.758 3.858-2.165l-1.407-.701c-.469.775-1.387 1.226-2.379 1.226-1.353 0-2.363-.703-2.596-2.074h6.707c.018-.27.036-.523.036-.758z"/></g><g><path fill="#b96d4f" d="M565.3 27.638c-1.407 0-2.688-1.1-2.688-2.796 0-1.694 1.389-2.74 2.688-2.74 1.459 0 2.613 1.155 2.613 2.74 0 1.57-1.154 2.796-2.613 2.796zm4.397-2.778c0-2.686-1.892-4.417-4.18-4.417-1.191 0-2.364.507-2.923 1.46v-5.822h-1.766v12.998h1.766v-1.262c.56.956 1.786 1.479 2.922 1.479 2.271 0 4.181-1.766 4.181-4.436z"/></g><g><path fill="#b96d4f" d="M571.182 26.556h1.641c0 .667.594 1.244 1.55 1.244.974 0 1.57-.487 1.57-1.118 0-.56-.452-.848-1.083-.992l-1.137-.27c-1.567-.415-2.289-1.225-2.289-2.47 0-1.37 1.245-2.507 2.993-2.507 1.443 0 2.992.757 2.992 2.525h-1.693c0-.613-.632-1.028-1.263-1.028-.74 0-1.243.487-1.243 1.064 0 .523.485.812 1.009.936l1.28.307c1.802.45 2.2 1.57 2.2 2.471 0 1.604-1.588 2.578-3.318 2.578-1.568 0-3.173-.974-3.21-2.74z"/></g><g><path fill="#b96d4f" d="M581.083 24.159c.253-1.407 1.227-2.075 2.524-2.075 1.298 0 2.254.758 2.435 2.075zm6.725.665c0-2.65-1.82-4.381-4.22-4.381-2.397 0-4.343 1.731-4.343 4.4 0 2.667 1.91 4.453 4.343 4.453 1.606 0 3.12-.758 3.859-2.165l-1.405-.701c-.47.775-1.39 1.226-2.381 1.226-1.351 0-2.362-.703-2.596-2.074h6.707c.018-.27.036-.523.036-.758z"/></g><g><path fill="#b96d4f" d="M589.886 29.08v-8.42h1.767v8.42zm-.323-11.486c0-.647.557-1.134 1.207-1.134.667 0 1.208.487 1.208 1.134 0 .65-.541 1.137-1.208 1.137-.65 0-1.207-.487-1.207-1.137z"/></g><g><path fill="#b96d4f" d="M598.578 20.66v1.478h-1.802v6.941h-1.768v-6.94h-1.513V20.66h1.513v-3.155h1.768v3.155z"/></g><g><path fill="#b96d4f" d="M601.394 24.159c.252-1.407 1.227-2.075 2.523-2.075 1.3 0 2.253.758 2.436 2.075zm6.725.665c0-2.65-1.822-4.381-4.22-4.381-2.397 0-4.345 1.731-4.345 4.4 0 2.667 1.912 4.453 4.345 4.453 1.606 0 3.12-.758 3.859-2.165l-1.405-.701c-.471.775-1.39 1.226-2.381 1.226-1.351 0-2.362-.703-2.596-2.074h6.706c.019-.27.037-.523.037-.758z"/></g><g><path fill="#b96d4f" d="M536.693 52.96c1.026-1.441 1.604-2.614 1.37-4.776h1.604c.18 2.108-.613 4.018-1.984 5.173zm-2.724 0c1.028-1.441 1.588-2.614 1.371-4.776h1.586c.198 2.108-.594 4.018-1.965 5.173z"/></g><g><path fill="#b96d4f" d="M550.126 45.913v4.812h-1.766v-4.704c0-1.371-.83-2.2-1.91-2.2-1.1 0-2.435.63-2.435 2.378v4.526h-1.766v-8.418h1.766v1.297c.487-1.045 1.84-1.516 2.74-1.516 2.128 0 3.389 1.427 3.371 3.825z"/></g><g><path fill="#b96d4f" d="M556.533 49.284c-1.443 0-2.651-1.137-2.651-2.778 0-1.622 1.208-2.758 2.651-2.758 1.441 0 2.668 1.136 2.668 2.758 0 1.641-1.227 2.778-2.668 2.778zm0 1.658c2.397 0 4.434-1.766 4.434-4.436 0-2.668-2.037-4.418-4.434-4.418-2.399 0-4.417 1.75-4.417 4.418 0 2.67 2.018 4.436 4.417 4.436z"/></g><g><path fill="#b96d4f" d="M562.506 46.506c0-2.668 2.108-4.418 4.543-4.418 1.37 0 2.542.561 3.282 1.443l-1.173 1.1c-.487-.54-1.227-.883-2.073-.883-1.569 0-2.814 1.154-2.814 2.758 0 1.605 1.245 2.778 2.814 2.778.846 0 1.586-.343 2.073-.884l1.173 1.099c-.74.883-1.913 1.443-3.282 1.443-2.435 0-4.543-1.766-4.543-4.436z"/></g><g><path fill="#b96d4f" d="M580.123 45.913v4.812h-1.765v-4.704c0-1.371-.83-2.2-1.913-2.2-1.098 0-2.433.648-2.433 2.378v4.526h-1.766V37.727h1.766v5.859c.487-1.027 1.84-1.498 2.74-1.498 2.129 0 3.39 1.427 3.371 3.825z"/></g><g><path fill="#b96d4f" d="M595.941 45.913v4.812h-1.786v-4.724c0-1.37-.721-2.217-1.856-2.217-1.389-.018-2.11.974-2.11 2.74v4.201h-1.784v-4.724c0-1.37-.722-2.217-1.766-2.217-1.1 0-2.219.704-2.219 2.415v4.526h-1.766v-8.418h1.766v1.387c.343-.992 1.48-1.606 2.632-1.606 1.226 0 2.255.65 2.76 1.768.72-1.46 2.036-1.768 2.884-1.768 2.109 0 3.245 1.427 3.245 3.825z"/></g><g><path fill="#b96d4f" d="M602.33 49.284c-1.477 0-2.614-1.263-2.614-2.778 0-1.495 1.137-2.758 2.578-2.758 1.353 0 2.706 1.136 2.706 2.758 0 1.587-1.263 2.778-2.67 2.778zm2.688-5.716c-.541-.955-1.696-1.48-2.922-1.48-2.38 0-4.164 1.912-4.164 4.418 0 2.597 1.893 4.436 4.091 4.436 1.3 0 2.454-.668 2.995-1.64v1.423h1.766v-8.418h-1.766z"/></g><g><path fill="#b96d4f" d="M609.439 50.725V37.727h1.768v12.998z"/></g><g><path fill="#b96d4f" d="M616.275 42.936c-.198-2.126.596-4.037 1.983-5.191l.974.397c-1.028 1.44-1.587 2.631-1.371 4.794zm-2.723 0c-.197-2.126.595-4.037 1.966-5.191l.992.397c-1.028 1.44-1.605 2.631-1.371 4.794z"/></g></g><g><g><path fill="#c16446" d="M581.29 158.153c0-3.534 2.76-6.454 6.292-6.454 1.696 0 3.211.667 4.292 1.711l-1.297 1.191a4.421 4.421 0 0 0-2.995-1.19c-2.505 0-4.434 2.182-4.434 4.742 0 2.541 1.929 4.686 4.452 4.686 2.093 0 3.859-1.387 3.859-3.207h-3.57v-1.588h5.608c0 4.416-2.363 6.509-5.879 6.509-3.586 0-6.327-2.885-6.327-6.4z"/></g><g><path fill="#c16446" d="M596.731 159.414c.253-1.406 1.225-2.073 2.524-2.073 1.298 0 2.253.758 2.433 2.073zm6.725.667c0-2.65-1.822-4.381-4.22-4.381-2.397 0-4.345 1.731-4.345 4.4 0 2.667 1.912 4.453 4.346 4.453 1.605 0 3.119-.758 3.858-2.165l-1.407-.702c-.469.774-1.387 1.225-2.38 1.225-1.352 0-2.36-.701-2.595-2.072h6.707c.018-.271.036-.523.036-.758z"/></g><g><path fill="#c16446" d="M604.92 161.813h1.642c0 .667.595 1.243 1.55 1.243.973 0 1.569-.488 1.569-1.117 0-.56-.451-.848-1.083-.992l-1.136-.27c-1.567-.416-2.289-1.227-2.289-2.47 0-1.371 1.245-2.507 2.993-2.507 1.443 0 2.992.757 2.992 2.525h-1.694c0-.613-.631-1.028-1.262-1.028-.74 0-1.245.487-1.245 1.064 0 .523.487.812 1.01.936l1.28.307c1.803.45 2.2 1.57 2.2 2.471 0 1.604-1.586 2.578-3.318 2.578-1.567 0-3.172-.974-3.209-2.74z"/></g><g><path fill="#c16446" d="M617.978 162.895c-1.298 0-2.687-1.046-2.687-2.742 0-1.694 1.28-2.794 2.687-2.794 1.46 0 2.614 1.209 2.614 2.794 0 1.588-1.154 2.742-2.614 2.742zm4.398-2.76c0-2.668-1.91-4.435-4.183-4.435-1.135 0-2.361.523-2.92 1.479v-1.263h-1.766v12.513h1.766v-5.336c.559.955 1.731 1.46 2.92 1.46 2.29 0 4.183-1.73 4.183-4.418z"/></g><g><path fill="#c16446" d="M630.062 156.006l-.307 1.678a2.988 2.988 0 0 0-1.244-.289c-1.532 0-2.253 1.64-2.253 3.913v3.028h-1.784v-8.42h1.784v1.894c.433-1.48 1.28-2.11 2.361-2.11.577 0 1.172.144 1.443.306z"/></g><g><path fill="#c16446" d="M637.169 154.457c.631 0 1.154-.47 1.154-1.099 0-.613-.523-1.084-1.154-1.084-.631 0-1.154.47-1.154 1.084 0 .63.523 1.099 1.154 1.099zm-2.018 8.438c-1.48 0-2.616-1.263-2.616-2.778 0-1.495 1.136-2.758 2.58-2.758 1.35 0 2.703 1.136 2.703 2.758 0 1.587-1.262 2.778-2.667 2.778zm-1.48-8.438c.614 0 1.137-.47 1.137-1.099 0-.613-.523-1.084-1.137-1.084-.63 0-1.154.47-1.154 1.084 0 .63.523 1.099 1.154 1.099zm4.165 2.722c-.54-.956-1.695-1.48-2.92-1.48-2.381 0-4.165 1.913-4.165 4.418 0 2.598 1.892 4.436 4.093 4.436 1.297 0 2.451-.668 2.992-1.642v1.425h1.766v-8.42h-1.766z"/></g><g><path fill="#c16446" d="M641.7 160.117c0-2.668 2.109-4.417 4.542-4.417 1.371 0 2.544.559 3.281 1.443l-1.17 1.1c-.487-.541-1.227-.884-2.075-.884-1.567 0-2.812 1.154-2.812 2.758 0 1.605 1.245 2.778 2.812 2.778.848 0 1.588-.343 2.075-.884l1.17 1.099c-.737.883-1.91 1.443-3.28 1.443-2.434 0-4.543-1.766-4.543-4.436z"/></g><g><path fill="#c16446" d="M659.318 159.524v4.812h-1.766v-4.704c0-1.371-.83-2.2-1.912-2.2-1.098 0-2.433.649-2.433 2.378v4.526h-1.768v-12.998h1.768v5.859c.487-1.027 1.838-1.497 2.74-1.497 2.126 0 3.39 1.425 3.371 3.824z"/></g><g><path fill="#c16446" d="M595.046 181.17v4.812h-1.784v-4.724c0-1.37-.721-2.217-1.857-2.217-1.388-.018-2.11.974-2.11 2.74v4.2h-1.783v-4.723c0-1.37-.722-2.217-1.768-2.217-1.1 0-2.217.703-2.217 2.415v4.526h-1.767v-8.42h1.767v1.389c.343-.992 1.478-1.606 2.632-1.606 1.227 0 2.253.65 2.758 1.768.722-1.461 2.038-1.768 2.884-1.768 2.11 0 3.245 1.425 3.245 3.824z"/></g><g><path fill="#c16446" d="M597.579 185.982v-8.42h1.768v8.42zm-.323-11.485c0-.648.557-1.135 1.207-1.135.667 0 1.208.487 1.208 1.135 0 .65-.54 1.136-1.208 1.136-.65 0-1.207-.487-1.207-1.136z"/></g><g><path fill="#c16446" d="M606.272 177.562v1.479h-1.802v6.94h-1.768v-6.94h-1.515v-1.48h1.515v-3.154h1.768v3.155z"/></g><g><path fill="#c16446" d="M621.835 185.982h-2.452l-4.742-5.228v5.228h-1.838V173.56h1.838v5.336l3.985-5.336h2.253l-4.668 6.22z"/></g><g><path fill="#c16446" d="M626.312 184.54c-1.443 0-2.652-1.136-2.652-2.777 0-1.622 1.209-2.758 2.652-2.758 1.441 0 2.668 1.136 2.668 2.758 0 1.641-1.227 2.778-2.668 2.778zm0 1.658c2.397 0 4.434-1.766 4.434-4.435 0-2.668-2.037-4.418-4.434-4.418-2.4 0-4.418 1.75-4.418 4.418 0 2.67 2.019 4.435 4.418 4.435z"/></g><g><path fill="#c16446" d="M632.844 185.982v-12.998h1.765v12.998z"/></g><g><path fill="#c16446" d="M637.263 185.982v-12.998h1.766v12.998z"/></g><g><path fill="#c16446" d="M642.997 181.06c.253-1.406 1.227-2.073 2.525-2.073 1.297 0 2.253.757 2.434 2.072zm6.689 1.424c.018-.27.036-.523.036-.757 0-2.65-1.82-4.382-4.218-4.382-2.399 0-4.345 1.732-4.345 4.4s1.91 4.453 4.345 4.453c1.604 0 3.12-.757 3.859-2.164l-1.407-.702c-.47.774-1.39 1.225-2.38 1.225-1.352 0-2.362-.702-2.597-2.073h6.707z"/></g><g><path fill="#c16446" d="M655.658 184.54c-1.441 0-2.614-1.226-2.614-2.795 0-1.586 1.173-2.74 2.614-2.74 1.299 0 2.688 1.046 2.688 2.74 0 1.695-1.263 2.796-2.688 2.796zm2.706-5.752c-.577-.936-1.75-1.443-2.92-1.443-2.273 0-4.166 1.732-4.166 4.418 0 2.67 1.893 4.435 4.183 4.435 1.117 0 2.326-.523 2.903-1.443v.217c0 2.668-1.1 3.678-2.866 3.678-.92 0-1.894-.523-2.363-1.425l-1.496.741a4.316 4.316 0 0 0 3.859 2.325c2.83 0 4.632-1.551 4.632-5.463v-7.266h-1.766z"/></g><g><path fill="#c16446" d="M664.084 181.06c.252-1.406 1.226-2.073 2.523-2.073 1.299 0 2.255.757 2.435 2.072zm6.688 1.424c.018-.27.036-.523.036-.757 0-2.65-1.82-4.382-4.219-4.382-2.397 0-4.343 1.732-4.343 4.4s1.91 4.453 4.343 4.453c1.606 0 3.12-.757 3.859-2.164l-1.406-.702c-.469.774-1.389 1.225-2.38 1.225-1.352 0-2.362-.702-2.596-2.073h6.706z"/></g><g><path fill="#c16446" d="M680.765 181.17v4.812h-1.767v-4.704c0-1.371-.828-2.201-1.91-2.201-1.1 0-2.434.631-2.434 2.38v4.525h-1.768v-8.42h1.768v1.299c.487-1.045 1.838-1.516 2.74-1.516 2.127 0 3.39 1.425 3.371 3.824z"/></g></g><g><g><path fill="#a28569" d="M137.003 133.664c0-9.671 7.84-17.51 17.51-17.51 9.671 0 17.51 7.839 17.51 17.51 0 9.67-7.839 17.51-17.51 17.51-9.67 0-17.51-7.84-17.51-17.51z"/></g></g><g><g><path fill="#a58266" d="M195.111 45.68c0-8.917 7.229-16.146 16.147-16.146 8.917 0 16.146 7.23 16.146 16.147 0 8.917-7.229 16.146-16.146 16.146-8.918 0-16.147-7.229-16.147-16.146z"/></g></g><g><g><path fill="#b0765a" d="M333.404 168.274c0-7.97 6.461-14.43 14.43-14.43 7.97 0 14.431 6.46 14.431 14.43s-6.46 14.43-14.43 14.43-14.43-6.46-14.43-14.43z"/></g></g><g><g><path fill="#b27458" d="M399.422 60.837c0-8.682 7.039-15.72 15.721-15.72s15.72 7.038 15.72 15.72c0 8.683-7.038 15.721-15.72 15.721s-15.72-7.038-15.72-15.72z"/></g></g><g><g><path fill="#b96d4f" d="M512.29 78.082c0-8.682 7.039-15.72 15.721-15.72s15.72 7.038 15.72 15.72-7.038 15.72-15.72 15.72-15.72-7.038-15.72-15.72z"/></g></g><g><g><path fill="#c16446" d="M602.316 122.03c0-8.211 6.657-14.868 14.868-14.868 8.212 0 14.869 6.657 14.869 14.868 0 8.212-6.657 14.868-14.869 14.868-8.211 0-14.868-6.656-14.868-14.868z"/></g></g><g><g><path fill="#c85e3f" d="M717.14 75.947c0-7.592 6.154-13.746 13.746-13.746 7.592 0 13.746 6.154 13.746 13.746 0 7.592-6.154 13.746-13.746 13.746-7.592 0-13.747-6.154-13.747-13.746z"/></g></g></g></svg>