<svg xmlns="http://www.w3.org/2000/svg" width="20" height="23" viewBox="0 0 20 23"><g><g><path fill="#75978a" d="M10.769 15.213v2.975H9.23v-2.975A1.745 1.745 0 0 1 10 11.898a1.747 1.747 0 0 1 .769 3.315zM5.263 2.626c0-.582.475-1.053 1.057-1.053h7.43c.581 0 1.056.471 1.056 1.053v4.66H5.263zm11.116 4.66v-4.66A2.632 2.632 0 0 0 13.749 0H6.32C4.87 0 3.69 1.18 3.69 2.626v4.66H2.314A1.819 1.819 0 0 0 .494 9.103v12.018c0 1.005.815 1.82 1.82 1.82h15.373a1.82 1.82 0 0 0 1.819-1.82V9.104a1.819 1.819 0 0 0-1.82-1.819z"/></g></g></svg>