<?xml version="1.0" encoding="utf-8"?>
<!-- Generator: Adobe Illustrator 24.1.2, SVG Export Plug-In . SVG Version: 6.00 Build 0)  -->
<svg version="1.1" id="Ebene_1" xmlns="http://www.w3.org/2000/svg" xmlns:xlink="http://www.w3.org/1999/xlink" x="0px" y="0px"
	 viewBox="0 0 868.1 292.5" style="enable-background:new 0 0 868.1 292.5;" xml:space="preserve">
<style type="text/css">
	.st0{fill:#64656B;}
</style>
<path class="st0" d="M839.8,190.9c-4.6,2.2-15.8,3.8-25.3,3.8c-22.5,0-34.5-9.5-34.5-25c0-26.1,29.9-28.5,59.7-30.1V190.9z
	 M868.1,205.8v-92.3c0-36.1-21.2-49.7-56.2-49.7c-19.6,0-39.4,5.2-51.1,10.3l7.6,20.4c9.8-4.6,26.6-9,40.5-9c18.7,0,31,6.5,31,25
	v9.2c-44.3,2.4-87.7,9.8-87.7,50.5c0,28.8,21.2,45.9,63.3,45.9C836,216.1,857.5,211.5,868.1,205.8 M717.9,213.1L659,136.6l56.7-69.8
	h-34.2l-52.4,67.1h-0.5V66.8H599v146.4h29.6v-73h0.5l54.6,73H717.9z M541.2,66.8h-29.9v146.4h29.9V66.8z M453.7,213.1V112.7
	c0-31-19.8-48.9-60.8-48.9c-22.8,0-41.5,4.3-56.2,10.3v139h29.6V92c6-2.4,16-4.3,26.9-4.3c20.4,0,30.7,10.6,30.7,27.7v97.8H453.7z
	 M279.1,66.8h-29.9v146.4h29.9V66.8z M190.9,0H161v213.1h29.9V0z M118.9,213.1L60,136.6l56.7-69.8H82.5l-52.4,67.1h-0.5V66.8H0
	v146.4h29.6v-73h0.5l54.6,73H118.9z"/>
<path class="st0" d="M734.5,291.9c6.3,0,9.6-4.1,9.6-8.7c0-3.6-1.9-6.9-6.9-8.5l-1.7-0.6c-2.9-0.9-3.8-2.2-3.8-3.7
	c0-1.7,1.3-3,3.5-3c2.1,0,4.4,0.9,7.1,2.4l0.9-5.4c-2.7-1.4-5.4-2.1-7.8-2.1c-5.4,0-9.1,3.6-9.1,8.3c0,3.7,1.9,6.9,7,8.6l1.7,0.6
	c2.8,0.9,3.6,2.2,3.6,3.7c0,1.8-1.4,3.3-4,3.3c-2.7,0-5.6-1.3-8.2-3.4l-0.9,5.5C727.6,290.4,730.7,291.9,734.5,291.9 M709.8,291.9
	c2.6,0,5.3-0.7,7.6-1.9l-0.9-5.7c-2.1,1.3-4.3,2-6.5,2c-5.3,0-9.4-4-9.4-9.2c0-5.2,4.1-9.3,9.4-9.3c2.2,0,4.4,0.7,6.2,1.7l0.9-5.7
	c-2.1-1-4.5-1.6-7.1-1.6c-8.6,0-15.3,6.5-15.3,14.8C694.6,285.4,701.2,291.9,709.8,291.9 M679.5,291.3h5.8v-28.8l-5.8,0.7V291.3z
	 M671,268.3l-0.8-5.4h-19l-0.9,5.4h7.5v23h5.8v-23H671z M631.7,286.1v-6.8h9.1v-5.2h-9.1V268h11.1l-0.8-5.1h-16v28.4h16.5l0.8-5.2
	H631.7z M609.8,263.2v10.9h-12.7v-11.6l-5.8,0.7v28.1h5.8v-11.7h12.7v11.7h5.8v-28.8L609.8,263.2z M583.1,268.3l-0.8-5.4h-19
	l-0.9,5.4h7.5v23h5.8v-23H583.1z M546.7,291.9c6.3,0,9.6-4.1,9.6-8.7c0-3.6-1.9-6.9-6.9-8.5l-1.7-0.6c-2.9-0.9-3.8-2.2-3.8-3.7
	c0-1.7,1.3-3,3.5-3c2.1,0,4.4,0.9,7.1,2.4l0.9-5.4c-2.7-1.4-5.4-2.1-7.8-2.1c-5.4,0-9.1,3.6-9.1,8.3c0,3.7,1.9,6.9,7,8.6l1.7,0.6
	c2.8,0.9,3.6,2.2,3.6,3.7c0,1.8-1.4,3.3-4,3.3c-2.7,0-5.6-1.3-8.2-3.4l-0.9,5.5C539.9,290.4,543,291.9,546.7,291.9 M518.1,286.1
	v-6.8h9.1v-5.2h-9.1V268h11.1l-0.8-5.1h-16v28.4h16.5l0.8-5.2H518.1z M476.6,267.7h1.7c3.3,0,5.2,1.9,5.2,4.5c0,2.7-1.9,4.6-5.2,4.6
	h-1.7V267.7z M490.8,291.3l-7.7-11.2c3.9-1.2,6.3-4.3,6.3-8.2c0-5.2-3.8-8.9-10.4-8.9h-8.2v28.4h5.7v-11.6l7.3,11.6H490.8z
	 M446.6,286.4c-5.2,0-9.2-4.1-9.2-9.3c0-5.2,4-9.3,9.2-9.3c5.2,0,9.2,4.1,9.2,9.3C455.8,282.3,451.8,286.4,446.6,286.4 M446.6,291.9
	c8.4,0,15.1-6.5,15.1-14.8c0-8.3-6.7-14.8-15.1-14.8c-8.5,0-15.1,6.5-15.1,14.8C431.5,285.4,438.1,291.9,446.6,291.9 M414.1,268.1
	h10.5l-0.8-5.2h-15.5v28.4h5.8v-11.1h8.5v-5.3h-8.5V268.1z M374.6,274.8l-0.8,4.9h6.4v5.9c-1.3,0.6-2.7,0.8-4.3,0.8
	c-5.3,0-9.4-4.1-9.4-9.3c0-5.3,4.2-9.4,9.6-9.4c2.4,0,4.9,0.7,7.1,2l0.9-5.5c-2.3-1.2-5.2-1.9-8-1.9c-8.6,0-15.3,6.5-15.3,14.8
	c0,8.3,6.6,14.8,15,14.8c3.5,0,7.1-1,9.8-2.6v-14.4H374.6z M351.4,262.5l-5.8,0.7v16.1l-18.9-17.7v29.6h5.8v-16.5l18.9,17.8V262.5z
	 M310.3,291.3h5.8v-28.8l-5.8,0.7V291.3z M301.9,268.3l-0.8-5.4h-19l-0.9,5.4h7.5v23h5.8v-23H301.9z M262.5,286.1v-6.8h9.1v-5.2
	h-9.1V268h11.1l-0.8-5.1h-16v28.4h16.5l0.8-5.2H262.5z M248.4,291.3l-10.2-14.7l9.8-13.7h-6.7l-8.6,12.6v-13l-5.8,0.7v28.1h5.8
	v-13.4l9,13.4H248.4z M204,267.7h1.7c3.3,0,5.2,1.9,5.2,4.5c0,2.7-1.9,4.6-5.2,4.6H204V267.7z M218.1,291.3l-7.7-11.2
	c3.9-1.2,6.3-4.3,6.3-8.2c0-5.2-3.8-8.9-10.4-8.9h-8.2v28.4h5.7v-11.6l7.3,11.6H218.1z M173.5,280.1l2.9-6.8l2.9,6.8H173.5z
	 M184.2,291.3h6.3l-14.1-29.4l-14,29.4h6.3l2.7-6.3h10.1L184.2,291.3z M155.6,291.3l-3.3-29.9l-12.5,20.4l-12.5-20.4l-3.3,29.9h5.8
	l1.4-13.6l8.6,14.2l8.6-14.2l1.4,13.6H155.6z"/>
</svg>
