<svg xmlns="http://www.w3.org/2000/svg" width="68" height="68" viewBox="0 0 68 68"><g><g><path fill="#5aa588" d="M0 34C0 15.222 15.222 0 34 0s34 15.222 34 34-15.222 34-34 34S0 52.778 0 34z"/></g><g transform="rotate(-180 34 32.13)"><g><path fill="#f4f4f1" d="M29.033 45.721v.07A6.208 6.208 0 0 0 35.209 52c.696.002 1.275-.546 1.275-1.242v-2.792c0-.6.218-1.182.613-1.636l7.337-8.383a2.477 2.477 0 0 1 1.87-.85h5.082V17.229h-5.09a7.543 7.543 0 0 1-2.192-.327l-6.761-2.492a34.809 34.809 0 0 0-12.036-2.148 3.727 3.727 0 0 0-3.726 3.726c0 .452.092.879.241 1.281-2.22.196-3.966 2.037-3.966 4.307 0 1.145.452 2.178 1.175 2.955-1.428.713-2.417 2.174-2.417 3.875 0 1.704.989 3.164 2.417 3.877-.991 1.063-1.47 2.608-.981 4.262.549 1.845 2.36 3.038 4.287 3.038h9.179l-1.96 3.916a4.974 4.974 0 0 0-.523 2.223"/></g></g></g></svg>