<svg xmlns="http://www.w3.org/2000/svg" width="68" height="68" viewBox="0 0 68 68"><g><g><path fill="#999a9d" d="M0 34C0 15.222 15.222 0 34 0s34 15.222 34 34-15.222 34-34 34S0 52.778 0 34z"/></g><g><g><path fill="#f4f4f1" d="M29.12 48.503v.07a6.208 6.208 0 0 0 6.177 6.209c.696.002 1.275-.547 1.275-1.242v-2.792c0-.601.218-1.182.613-1.637l7.337-8.382a2.477 2.477 0 0 1 1.87-.85h5.082V20.01h-5.09a7.543 7.543 0 0 1-2.192-.327l-6.761-2.491a34.809 34.809 0 0 0-12.036-2.149 3.727 3.727 0 0 0-3.726 3.726c0 .452.092.88.241 1.282-2.22.196-3.966 2.036-3.966 4.306 0 1.145.452 2.179 1.175 2.956-1.428.713-2.417 2.173-2.417 3.874 0 1.704.989 3.165 2.417 3.877-.991 1.064-1.47 2.608-.981 4.263.549 1.845 2.36 3.037 4.287 3.037h9.179l-1.96 3.917a4.974 4.974 0 0 0-.523 2.223"/></g></g></g></svg>